<?xml version="1.0" encoding="UTF-8" standalone="no"?>
<!-- Generator: Adobe Illustrator 21.1.0, SVG Export Plug-In . SVG Version: 6.00 Build 0)  -->

<svg
   xmlns:dc="http://purl.org/dc/elements/1.1/"
   xmlns:cc="http://creativecommons.org/ns#"
   xmlns:rdf="http://www.w3.org/1999/02/22-rdf-syntax-ns#"
   xmlns:svg="http://www.w3.org/2000/svg"
   xmlns="http://www.w3.org/2000/svg"
   xmlns:sodipodi="http://sodipodi.sourceforge.net/DTD/sodipodi-0.dtd"
   xmlns:inkscape="http://www.inkscape.org/namespaces/inkscape"
   version="1.1"
   id="Layer_1"
   x="0px"
   y="0px"
   viewBox="0 0 223.24956 40.570248"
   xml:space="preserve"
   sodipodi:docname="hiring-mgmt.svg"
   width="223.24956"
   height="40.570248"
   inkscape:version="0.92.4 (unknown)"
   inkscape:export-filename="/home/dtorresf/Pictures/created/hr.svg.png"
   inkscape:export-xdpi="96"
   inkscape:export-ydpi="96"><metadata
   id="metadata9"><rdf:RDF><cc:Work
       rdf:about=""><dc:format>image/svg+xml</dc:format><dc:type
         rdf:resource="http://purl.org/dc/dcmitype/StillImage" /><dc:title></dc:title></cc:Work></rdf:RDF></metadata><defs
   id="defs7" /><sodipodi:namedview
   pagecolor="#ffffff"
   bordercolor="#666666"
   borderopacity="1"
   objecttolerance="10"
   gridtolerance="10"
   guidetolerance="10"
   inkscape:pageopacity="0"
   inkscape:pageshadow="2"
   inkscape:window-width="1600"
   inkscape:window-height="863"
   id="namedview5"
   showgrid="false"
   fit-margin-top="0"
   fit-margin-left="0"
   fit-margin-right="0"
   fit-margin-bottom="0"
   inkscape:zoom="2.9088062"
   inkscape:cx="162.56122"
   inkscape:cy="38.034092"
   inkscape:window-x="0"
   inkscape:window-y="0"
   inkscape:window-maximized="1"
   inkscape:current-layer="Layer_1"
   inkscape:pagecheckerboard="true" />
<path
   d="m 17.946145,9.01 c 2.35,0 4.26,-1.91 4.26,-4.26 0,-2.35 -1.92,-4.25 -4.26,-4.25 -2.34,0 -4.26,1.91 -4.26,4.25 0,2.35 1.91,4.26 4.26,4.26 z m 0,-7.9 c 2.01,0 3.64,1.63 3.64,3.64 0,2.01 -1.63,3.64 -3.64,3.64 -2.01,0 -3.64,-1.63 -3.64,-3.64 0,-2.01 1.63,-3.64 3.64,-3.64 z m 2.33,8.72 h -4.67 c -4.34,0 -6.73,2.39 -6.73,6.73 v 3.75 c 0,2.12 1.41,3.16 2.91,4.26 l 0.2,0.15 v 1.39 c 0,0.08 0.03,0.15 0.08,0.2 0.29,0.33 1.58,1.41 5.88,1.41 4.3,0 5.59,-1.08 5.88,-1.41 0.05,-0.06 0.08,-0.13 0.08,-0.2 v -1.4 l 0.2,-0.14 c 1.5,-1.1 2.91,-2.14 2.91,-4.26 v -3.75 c -0.01,-4.34 -2.4,-6.73 -6.74,-6.73 z m 6.12,10.47 c 0,1.81 -1.23,2.72 -2.65,3.77 v -8.11 c 0,-0.15 -0.12,-0.27 -0.27,-0.27 -0.15,0 -0.27,0.12 -0.27,0.27 v 10.1 c -0.45,0.34 -1.77,1.05 -5.26,1.05 -3.62,0 -4.91,-0.76 -5.3,-1.09 0.01,-0.02 0.02,-0.05 0.02,-0.08 v -9.99 c 0,-0.15 -0.12,-0.27 -0.27,-0.27 -0.15,0 -0.27,0.12 -0.27,0.27 v 8.09 c -1.41,-1.04 -2.63,-1.94 -2.63,-3.74 v -3.75 c 0,-2.79 1.06,-6.11 6.11,-6.11 h 4.67 c 5.05,0 6.11,3.32 6.11,6.11 v 3.75 z"
   id="path2"
   inkscape:connector-curvature="0"
   style="stroke:#ffffff" />
<path
   id="path4321-0"
   d="m 17.404102,31.231895 c -0.01437,-0.04049 -0.04669,-0.06994 -0.08978,-0.0773 l -2.837093,-0.423309 -1.267712,-2.63556 c -0.01437,-0.03681 -0.05387,-0.06258 -0.09696,-0.06258 -0.04309,0 -0.079,0.02577 -0.100555,0.06258 l -1.267714,2.63556 -2.8370902,0.423309 c -0.04309,0.0073 -0.07542,0.03681 -0.08978,0.0773 -0.01437,0.04049 -0.0036,0.08466 0.02873,0.114109 l 2.0506072,2.050289 -0.48482,2.896906 c -0.0072,0.04049 0.01077,0.08466 0.04309,0.110429 0.03591,0.02577 0.079,0.02945 0.11492,0.0073 l 2.542609,-1.365632 2.535425,1.365632 c 0.01437,0.0073 0.03232,0.01472 0.05028,0.01472 0.02155,0 0.04669,-0.0073 0.06465,-0.02209 0.03232,-0.02577 0.05028,-0.06626 0.04309,-0.110429 l -0.484825,-2.896836 2.054199,-2.050289 c 0.03232,-0.02945 0.04309,-0.07362 0.02873,-0.114109 z m -2.273264,2.046607 c -0.02514,0.02577 -0.03591,0.06258 -0.03232,0.09939 l 0.456089,2.727583 -2.391776,-1.288332 c -0.03232,-0.01841 -0.07182,-0.01841 -0.104146,0 l -2.391776,1.288332 0.45609,-2.727583 c 0.0072,-0.03681 -0.0072,-0.07362 -0.03232,-0.09939 L 9.1621788,31.346004 11.834071,30.948462 c 0.03591,-0.0073 0.06823,-0.02945 0.0826,-0.06258 l 1.19589,-2.48464 1.195887,2.480959 c 0.01437,0.03313 0.04669,0.05521 0.0826,0.06258 l 2.671893,0.401223 z m -1.788445,1.402442 c -0.01437,0.02945 -0.0036,0.06258 0.02514,0.0773 l 1.842314,0.990174 c 0.0072,0.0037 0.01796,0.0073 0.02514,0.0073 0.02155,0 0.03951,-0.01104 0.05028,-0.02945 0.01437,-0.02577 0.0036,-0.06258 -0.02154,-0.0773 L 13.4214,34.65884 c -0.03232,-0.01472 -0.06465,-0.0037 -0.079,0.02209 z m -0.193927,-5.804857 c -0.02873,-0.01472 -0.06105,-0.0037 -0.07542,0.02577 l -0.879856,1.825751 c -0.01437,0.02945 -0.0036,0.06258 0.02514,0.07362 0.0072,0.0037 0.01795,0.0073 0.02514,0.0073 0.02155,0 0.03951,-0.01104 0.05028,-0.03313 l 0.879857,-1.82575 c 0.01437,-0.02577 0.0036,-0.05889 -0.02514,-0.07362 z m -3.3650062,2.709178 c -0.02155,-0.02209 -0.05746,-0.02209 -0.079,0 -0.02154,0.02209 -0.02154,0.05889 0,0.08098 l 1.6124742,1.608575 -0.240614,1.442932 c -0.0036,0.02945 0.01437,0.05889 0.04309,0.06626 0.0036,0 0.0072,0 0.01077,0 0.02514,0 0.05028,-0.01841 0.05387,-0.04785 l 0.247799,-1.47238 c 0.0036,-0.01841 -0.0036,-0.03681 -0.01437,-0.05153 z"
   inkscape:connector-curvature="0"
   style="stroke:#ffffff;stroke-width:0.36358252" /><path
   id="path4321-0-9"
   d="m 27.452296,31.267809 c -0.01437,-0.04049 -0.04669,-0.06994 -0.08978,-0.0773 L 24.525423,30.7672 23.257711,28.13164 c -0.01437,-0.03681 -0.05387,-0.06258 -0.09696,-0.06258 -0.04309,0 -0.079,0.02577 -0.100555,0.06258 l -1.267713,2.63556 -2.837091,0.423309 c -0.04309,0.0073 -0.07542,0.03681 -0.08978,0.0773 -0.01437,0.04049 -0.0036,0.08466 0.02873,0.114109 l 2.050607,2.050289 -0.48482,2.896906 c -0.0072,0.04049 0.01077,0.08466 0.04309,0.110429 0.03591,0.02577 0.079,0.02945 0.11492,0.0073 l 2.542609,-1.365632 2.535425,1.365632 c 0.01437,0.0073 0.03232,0.01472 0.05028,0.01472 0.02155,0 0.04669,-0.0073 0.06465,-0.02209 0.03232,-0.02577 0.05028,-0.06626 0.04309,-0.110429 l -0.484825,-2.896836 2.054199,-2.050289 c 0.03232,-0.02945 0.04309,-0.07362 0.02873,-0.114109 z m -2.273264,2.046607 c -0.02514,0.02577 -0.03591,0.06258 -0.03232,0.09939 l 0.456089,2.727583 -2.391776,-1.288332 c -0.03232,-0.01841 -0.07182,-0.01841 -0.104146,0 l -2.391776,1.288332 0.45609,-2.727583 c 0.0072,-0.03681 -0.0072,-0.07362 -0.03232,-0.09939 l -1.9285,-1.932498 2.671893,-0.397542 c 0.03591,-0.0073 0.06823,-0.02945 0.0826,-0.06258 l 1.195889,-2.48464 1.195887,2.480959 c 0.01437,0.03313 0.04669,0.05521 0.0826,0.06258 l 2.671893,0.401223 z m -1.788445,1.402442 c -0.01437,0.02945 -0.0036,0.06258 0.02514,0.0773 l 1.842314,0.990174 c 0.0072,0.0037 0.01796,0.0073 0.02514,0.0073 0.02155,0 0.03951,-0.01104 0.05028,-0.02945 0.01437,-0.02577 0.0036,-0.06258 -0.02154,-0.0773 l -1.842327,-0.990128 c -0.03232,-0.01472 -0.06465,-0.0037 -0.079,0.02209 z M 23.19666,28.912001 c -0.02873,-0.01472 -0.06105,-0.0037 -0.07542,0.02577 l -0.879856,1.825751 c -0.01437,0.02945 -0.0036,0.06258 0.02514,0.07362 0.0072,0.0037 0.01795,0.0073 0.02514,0.0073 0.02155,0 0.03951,-0.01104 0.05028,-0.03313 l 0.879857,-1.82575 c 0.01437,-0.02577 0.0036,-0.05889 -0.02514,-0.07362 z m -3.365006,2.709178 c -0.02155,-0.02209 -0.05746,-0.02209 -0.079,0 -0.02154,0.02209 -0.02154,0.05889 0,0.08098 l 1.612474,1.608575 -0.240614,1.442932 c -0.0036,0.02945 0.01437,0.05889 0.04309,0.06626 0.0036,0 0.0072,0 0.01077,0 0.02514,0 0.05028,-0.01841 0.05387,-0.04785 l 0.2478,-1.47238 c 0.0036,-0.01841 -0.0036,-0.03681 -0.01437,-0.05153 z"
   inkscape:connector-curvature="0"
   style="stroke:#ffffff;stroke-width:0.36358252" /><path
   id="path4321-0-9-1"
   d="m 35.052606,25.595937 c -0.01437,-0.04049 -0.04669,-0.06994 -0.08978,-0.0773 l -2.837093,-0.423309 -1.267712,-2.63556 c -0.01437,-0.03681 -0.05387,-0.06258 -0.09696,-0.06258 -0.04309,0 -0.079,0.02577 -0.100555,0.06258 l -1.267713,2.63556 -2.837091,0.423309 c -0.04309,0.0073 -0.07542,0.03681 -0.08978,0.0773 -0.01437,0.04049 -0.0036,0.08466 0.02873,0.114109 l 2.050607,2.050289 -0.48482,2.896906 c -0.0072,0.04049 0.01077,0.08466 0.04309,0.110429 0.03591,0.02577 0.079,0.02945 0.11492,0.0073 l 2.542609,-1.365632 2.535425,1.365632 c 0.01437,0.0073 0.03232,0.01472 0.05028,0.01472 0.02155,0 0.04669,-0.0073 0.06465,-0.02209 0.03232,-0.02577 0.05028,-0.06626 0.04309,-0.110429 l -0.484825,-2.896836 2.054199,-2.050289 c 0.03232,-0.02945 0.04309,-0.07362 0.02873,-0.114109 z m -2.273264,2.046607 c -0.02514,0.02577 -0.03591,0.06258 -0.03232,0.09939 l 0.456089,2.727583 -2.391776,-1.288332 c -0.03232,-0.01841 -0.07182,-0.01841 -0.104146,0 l -2.391776,1.288332 0.45609,-2.727583 c 0.0072,-0.03681 -0.0072,-0.07362 -0.03232,-0.09939 l -1.9285,-1.932498 2.671893,-0.397542 c 0.03591,-0.0073 0.06823,-0.02945 0.0826,-0.06258 l 1.195889,-2.48464 1.195887,2.480959 c 0.01437,0.03313 0.04669,0.05521 0.0826,0.06258 l 2.671893,0.401223 z m -1.788445,1.402442 c -0.01437,0.02945 -0.0036,0.06258 0.02514,0.0773 l 1.842314,0.990174 c 0.0072,0.0037 0.01796,0.0073 0.02514,0.0073 0.02155,0 0.03951,-0.01104 0.05028,-0.02945 0.01437,-0.02577 0.0036,-0.06258 -0.02154,-0.0773 l -1.842327,-0.990128 c -0.03232,-0.01472 -0.06465,-0.0037 -0.079,0.02209 z M 30.79697,23.240129 c -0.02873,-0.01472 -0.06105,-0.0037 -0.07542,0.02577 l -0.879856,1.825751 c -0.01437,0.02945 -0.0036,0.06258 0.02514,0.07362 0.0072,0.0037 0.01795,0.0073 0.02514,0.0073 0.02155,0 0.03951,-0.01104 0.05028,-0.03313 l 0.879857,-1.82575 c 0.01437,-0.02577 0.0036,-0.05889 -0.02514,-0.07362 z m -3.365006,2.709178 c -0.02155,-0.02209 -0.05746,-0.02209 -0.079,0 -0.02154,0.02209 -0.02154,0.05889 0,0.08098 l 1.612474,1.608575 -0.240614,1.442932 c -0.0036,0.02945 0.01437,0.05889 0.04309,0.06626 0.0036,0 0.0072,0 0.01077,0 0.02514,0 0.05028,-0.01841 0.05387,-0.04785 l 0.2478,-1.47238 c 0.0036,-0.01841 -0.0036,-0.03681 -0.01437,-0.05153 z"
   inkscape:connector-curvature="0"
   style="stroke:#ffffff;stroke-width:0.36358252" /><path
   id="path4321-0-7"
   d="m 8.773943,24.403386 c -0.01437,-0.04049 -0.04669,-0.06994 -0.08978,-0.0773 L 5.84707,23.902777 4.579358,21.267217 c -0.01437,-0.03681 -0.05387,-0.06258 -0.09696,-0.06258 -0.04309,0 -0.079,0.02577 -0.100555,0.06258 l -1.267714,2.63556 -2.83709128,0.423309 c -0.04309,0.0073 -0.07542,0.03681 -0.08978,0.0773 -0.01437,0.04049 -0.0036,0.08466 0.02873,0.114109 L 2.266596,26.567784 1.781776,29.46469 c -0.0072,0.04049 0.01077,0.08466 0.04309,0.110429 0.03591,0.02577 0.079,0.02945 0.11492,0.0073 l 2.542609,-1.365632 2.535425,1.365632 c 0.01437,0.0073 0.03232,0.01472 0.05028,0.01472 0.02155,0 0.04669,-0.0073 0.06465,-0.02209 0.03232,-0.02577 0.05028,-0.06626 0.04309,-0.110429 L 6.691015,26.567784 8.745214,24.517495 c 0.03232,-0.02945 0.04309,-0.07362 0.028729,-0.114109 z m -2.273264,2.046607 c -0.02514,0.02577 -0.03591,0.06258 -0.03232,0.09939 l 0.456089,2.727583 -2.391776,-1.288332 c -0.03232,-0.01841 -0.07182,-0.01841 -0.104146,0 L 2.03675,29.276966 2.49284,26.549383 c 0.0072,-0.03681 -0.0072,-0.07362 -0.03232,-0.09939 L 0.53201872,24.517495 3.203912,24.119953 c 0.03591,-0.0073 0.06823,-0.02945 0.0826,-0.06258 l 1.19589,-2.48464 1.195887,2.480959 c 0.01437,0.03313 0.04669,0.05521 0.0826,0.06258 l 2.671893,0.401223 z m -1.788445,1.402442 c -0.01437,0.02945 -0.0036,0.06258 0.02514,0.0773 l 1.842314,0.990174 c 0.0072,0.0037 0.01796,0.0073 0.02514,0.0073 0.02155,0 0.03951,-0.01104 0.05028,-0.02945 0.01437,-0.02577 0.0036,-0.06258 -0.02154,-0.0773 L 4.791241,27.830331 c -0.03232,-0.01472 -0.06465,-0.0037 -0.079,0.02209 z M 4.518307,22.047578 c -0.02873,-0.01472 -0.06105,-0.0037 -0.07542,0.02577 l -0.879856,1.825751 c -0.01437,0.02945 -0.0036,0.06258 0.02514,0.07362 0.0072,0.0037 0.01795,0.0073 0.02514,0.0073 0.02155,0 0.03951,-0.01104 0.05028,-0.03313 l 0.879857,-1.82575 c 0.01437,-0.02577 0.0036,-0.05889 -0.02514,-0.07362 z M 1.1533,24.756756 c -0.02155,-0.02209 -0.05746,-0.02209 -0.079,0 -0.02154,0.02209 -0.02154,0.05889 0,0.08098 l 1.612475,1.608575 -0.240614,1.442932 c -0.0036,0.02945 0.01437,0.05889 0.04309,0.06626 0.0036,0 0.0072,0 0.01077,0 0.02514,0 0.05028,-0.01841 0.05387,-0.04785 l 0.247799,-1.47238 c 0.0036,-0.01841 -0.0036,-0.03681 -0.01437,-0.05153 z"
   inkscape:connector-curvature="0"
   style="stroke:#ffffff;stroke-width:0.36358252" /><text
   xml:space="preserve"
   style="font-style:normal;font-variant:normal;font-weight:normal;font-stretch:normal;font-size:40px;line-height:1.25;font-family:'Red Hat Text';-inkscape-font-specification:'Red Hat Text, Normal';font-variant-ligatures:normal;font-variant-caps:normal;font-variant-numeric:normal;font-feature-settings:normal;text-align:start;letter-spacing:0px;word-spacing:0px;writing-mode:lr-tb;text-anchor:start;fill:#ffffff;fill-opacity:1;stroke:#ffffff"
   x="36.002686"
   y="31.550249"
   id="text836"><tspan
     sodipodi:role="line"
     id="tspan834"
     x="36.002686"
     y="31.550249">Hiring App</tspan></text>
</svg>