<?xml version="1.0" encoding="UTF-8" standalone="no"?>
<!-- Generator: Adobe Illustrator 21.1.0, SVG Export Plug-In . SVG Version: 6.00 Build 0)  -->

<svg
   xmlns:dc="http://purl.org/dc/elements/1.1/"
   xmlns:cc="http://creativecommons.org/ns#"
   xmlns:rdf="http://www.w3.org/1999/02/22-rdf-syntax-ns#"
   xmlns:svg="http://www.w3.org/2000/svg"
   xmlns="http://www.w3.org/2000/svg"
   xmlns:sodipodi="http://sodipodi.sourceforge.net/DTD/sodipodi-0.dtd"
   xmlns:inkscape="http://www.inkscape.org/namespaces/inkscape"
   version="1.1"
   id="Layer_1"
   x="0px"
   y="0px"
   viewBox="0 0 223.34046 39.387985"
   xml:space="preserve"
   sodipodi:docname="hiring-mgmt-black.svg"
   width="223.34045"
   height="39.387985"
   inkscape:version="0.92.4 (unknown)"
   inkscape:export-filename="/home/dtorresf/Pictures/created/hr.svg.png"
   inkscape:export-xdpi="96"
   inkscape:export-ydpi="96"><metadata
   id="metadata9"><rdf:RDF><cc:Work
       rdf:about=""><dc:format>image/svg+xml</dc:format><dc:type
         rdf:resource="http://purl.org/dc/dcmitype/StillImage" /><dc:title></dc:title></cc:Work></rdf:RDF></metadata><defs
   id="defs7" /><sodipodi:namedview
   pagecolor="#ffffff"
   bordercolor="#666666"
   borderopacity="1"
   objecttolerance="10"
   gridtolerance="10"
   guidetolerance="10"
   inkscape:pageopacity="0"
   inkscape:pageshadow="2"
   inkscape:window-width="1600"
   inkscape:window-height="863"
   id="namedview5"
   showgrid="false"
   fit-margin-top="0"
   fit-margin-left="0"
   fit-margin-right="0"
   fit-margin-bottom="0"
   inkscape:zoom="2.0568366"
   inkscape:cx="136.7883"
   inkscape:cy="47.356623"
   inkscape:window-x="0"
   inkscape:window-y="0"
   inkscape:window-maximized="1"
   inkscape:current-layer="Layer_1"
   inkscape:pagecheckerboard="true" />
<path
   d="m 17.719651,8.51 c 2.35,0 4.26,-1.91 4.26,-4.26 0,-2.35 -1.92,-4.25 -4.26,-4.25 -2.34,0 -4.26,1.91 -4.26,4.25 0,2.35 1.91,4.26 4.26,4.26 z m 0,-7.9 c 2.01,0 3.64,1.63 3.64,3.64 0,2.01 -1.63,3.64 -3.64,3.64 -2.01,0 -3.64,-1.63 -3.64,-3.64 0,-2.01 1.63,-3.64 3.64,-3.64 z m 2.33,8.72 h -4.67 c -4.34,0 -6.7300005,2.39 -6.7300005,6.73 v 3.75 c 0,2.12 1.4100005,3.16 2.9100005,4.26 l 0.2,0.15 v 1.39 c 0,0.08 0.03,0.15 0.08,0.2 0.29,0.33 1.58,1.41 5.88,1.41 4.3,0 5.59,-1.08 5.88,-1.41 0.05,-0.06 0.08,-0.13 0.08,-0.2 v -1.4 l 0.2,-0.14 c 1.5,-1.1 2.91,-2.14 2.91,-4.26 v -3.75 c -0.01,-4.34 -2.4,-6.73 -6.74,-6.73 z m 6.12,10.47 c 0,1.81 -1.23,2.72 -2.65,3.77 v -8.11 c 0,-0.15 -0.12,-0.27 -0.27,-0.27 -0.15,0 -0.27,0.12 -0.27,0.27 v 10.1 c -0.45,0.34 -1.77,1.05 -5.26,1.05 -3.62,0 -4.91,-0.76 -5.3,-1.09 0.01,-0.02 0.02,-0.05 0.02,-0.08 v -9.99 c 0,-0.15 -0.12,-0.27 -0.27,-0.27 -0.15,0 -0.27,0.12 -0.27,0.27 v 8.09 C 10.489651,22.5 9.2696505,21.6 9.2696505,19.8 v -3.75 c 0,-2.79 1.0600005,-6.11 6.1100005,-6.11 h 4.67 c 5.05,0 6.11,3.32 6.11,6.11 v 3.75 z"
   id="path2"
   inkscape:connector-curvature="0" />
<path
   id="path4321"
   d="m 8.5929306,23.68713 c -0.01437,-0.04049 -0.04669,-0.06994 -0.08978,-0.0773 l -2.837093,-0.423309 -1.267712,-2.63556 c -0.01437,-0.03681 -0.05387,-0.06258 -0.09696,-0.06258 -0.04309,0 -0.079,0.02577 -0.100555,0.06258 l -1.267713,2.63556 -2.83709096,0.423309 c -0.04309,0.0073 -0.07542,0.03681 -0.08978,0.0773 -0.01437,0.04049 -0.0036,0.08466 0.02873,0.114109 l 2.05060706,2.050289 -0.48482,2.896906 c -0.0072,0.04049 0.01077,0.08466 0.04309,0.110429 0.03591,0.02577 0.079,0.02945 0.11492,0.0073 l 2.5426089,-1.365632 2.535425,1.365632 c 0.01437,0.0073 0.03232,0.01472 0.05028,0.01472 0.02155,0 0.04669,-0.0073 0.06465,-0.02209 0.03232,-0.02577 0.05028,-0.06626 0.04309,-0.110429 l -0.484825,-2.896836 2.054199,-2.050289 c 0.03232,-0.02945 0.04309,-0.07362 0.028729,-0.114109 z m -2.273264,2.046607 c -0.02514,0.02577 -0.03591,0.06258 -0.03232,0.09939 l 0.456089,2.727583 -2.391776,-1.288332 c -0.03232,-0.01841 -0.07182,-0.01841 -0.104146,0 l -2.3917759,1.288332 0.45609,-2.727583 c 0.0072,-0.03681 -0.0072,-0.07362 -0.03232,-0.09939 L 0.35100764,23.801239 3.0229006,23.403697 c 0.03591,-0.0073 0.06823,-0.02945 0.0826,-0.06258 l 1.195889,-2.48464 1.195887,2.480959 c 0.01437,0.03313 0.04669,0.05521 0.0826,0.06258 l 2.671893,0.401223 z m -1.788445,1.402442 c -0.01437,0.02945 -0.0036,0.06258 0.02514,0.0773 l 1.842314,0.990174 c 0.0072,0.0037 0.01796,0.0073 0.02514,0.0073 0.02155,0 0.03951,-0.01104 0.05028,-0.02945 0.01437,-0.02577 0.0036,-0.06258 -0.02154,-0.0773 l -1.842327,-0.990128 c -0.03232,-0.01472 -0.06465,-0.0037 -0.079,0.02209 z m -0.193927,-5.804857 c -0.02873,-0.01472 -0.06105,-0.0037 -0.07542,0.02577 l -0.879856,1.825751 c -0.01437,0.02945 -0.0036,0.06258 0.02514,0.07362 0.0072,0.0037 0.01795,0.0073 0.02514,0.0073 0.02155,0 0.03951,-0.01104 0.05028,-0.03313 l 0.879857,-1.82575 c 0.01437,-0.02577 0.0036,-0.05889 -0.02514,-0.07362 z M 0.97228867,24.0405 c -0.02155,-0.02209 -0.05746,-0.02209 -0.079,0 -0.02154,0.02209 -0.02154,0.05889 0,0.08098 l 1.61247403,1.608575 -0.240614,1.442932 c -0.0036,0.02945 0.01437,0.05889 0.04309,0.06626 0.0036,0 0.0072,0 0.01077,0 0.02514,0 0.05028,-0.01841 0.05387,-0.04785 l 0.2478,-1.47238 c 0.0036,-0.01841 -0.0036,-0.03681 -0.01437,-0.05153 z"
   inkscape:connector-curvature="0"
   style="stroke-width:0.36358252" /><path
   id="path4321-0"
   d="m 17.177608,30.731895 c -0.01437,-0.04049 -0.04669,-0.06994 -0.08978,-0.0773 l -2.837093,-0.423309 -1.267712,-2.63556 c -0.01437,-0.03681 -0.05387,-0.06258 -0.09696,-0.06258 -0.04309,0 -0.079,0.02577 -0.100555,0.06258 l -1.267714,2.63556 -2.8370907,0.423309 c -0.04309,0.0073 -0.07542,0.03681 -0.08978,0.0773 -0.01437,0.04049 -0.0036,0.08466 0.02873,0.114109 l 2.0506077,2.050289 -0.48482,2.896906 c -0.0072,0.04049 0.01077,0.08466 0.04309,0.110429 0.03591,0.02577 0.079,0.02945 0.11492,0.0073 l 2.542609,-1.365632 2.535425,1.365632 c 0.01437,0.0073 0.03232,0.01472 0.05028,0.01472 0.02155,0 0.04669,-0.0073 0.06465,-0.02209 0.03232,-0.02577 0.05028,-0.06626 0.04309,-0.110429 l -0.484825,-2.896836 2.054199,-2.050289 c 0.03232,-0.02945 0.04309,-0.07362 0.02873,-0.114109 z m -2.273264,2.046607 c -0.02514,0.02577 -0.03591,0.06258 -0.03232,0.09939 l 0.456089,2.727583 -2.391776,-1.288332 c -0.03232,-0.01841 -0.07182,-0.01841 -0.104146,0 l -2.391776,1.288332 0.45609,-2.727583 c 0.0072,-0.03681 -0.0072,-0.07362 -0.03232,-0.09939 L 8.9356843,30.846004 11.607577,30.448462 c 0.03591,-0.0073 0.06823,-0.02945 0.0826,-0.06258 l 1.19589,-2.48464 1.195887,2.480959 c 0.01437,0.03313 0.04669,0.05521 0.0826,0.06258 l 2.671893,0.401223 z m -1.788445,1.402442 c -0.01437,0.02945 -0.0036,0.06258 0.02514,0.0773 l 1.842314,0.990174 c 0.0072,0.0037 0.01796,0.0073 0.02514,0.0073 0.02155,0 0.03951,-0.01104 0.05028,-0.02945 0.01437,-0.02577 0.0036,-0.06258 -0.02154,-0.0773 L 13.194906,34.15884 c -0.03232,-0.01472 -0.06465,-0.0037 -0.079,0.02209 z m -0.193927,-5.804857 c -0.02873,-0.01472 -0.06105,-0.0037 -0.07542,0.02577 l -0.879856,1.825751 c -0.01437,0.02945 -0.0036,0.06258 0.02514,0.07362 0.0072,0.0037 0.01795,0.0073 0.02514,0.0073 0.02155,0 0.03951,-0.01104 0.05028,-0.03313 l 0.879857,-1.82575 c 0.01437,-0.02577 0.0036,-0.05889 -0.02514,-0.07362 z m -3.3650067,2.709178 c -0.02155,-0.02209 -0.05746,-0.02209 -0.079,0 -0.02154,0.02209 -0.02154,0.05889 0,0.08098 l 1.6124747,1.608575 -0.240614,1.442932 c -0.0036,0.02945 0.01437,0.05889 0.04309,0.06626 0.0036,0 0.0072,0 0.01077,0 0.02514,0 0.05028,-0.01841 0.05387,-0.04785 l 0.247799,-1.47238 c 0.0036,-0.01841 -0.0036,-0.03681 -0.01437,-0.05153 z"
   inkscape:connector-curvature="0"
   style="stroke-width:0.36358252" /><path
   id="path4321-0-9"
   d="m 27.225802,30.767809 c -0.01437,-0.04049 -0.04669,-0.06994 -0.08978,-0.0773 L 24.298929,30.2672 23.031217,27.63164 c -0.01437,-0.03681 -0.05387,-0.06258 -0.09696,-0.06258 -0.04309,0 -0.079,0.02577 -0.100555,0.06258 l -1.267713,2.63556 -2.837091,0.423309 c -0.04309,0.0073 -0.07542,0.03681 -0.08978,0.0773 -0.01437,0.04049 -0.0036,0.08466 0.02873,0.114109 l 2.050607,2.050289 -0.48482,2.896906 c -0.0072,0.04049 0.01077,0.08466 0.04309,0.110429 0.03591,0.02577 0.079,0.02945 0.11492,0.0073 l 2.542609,-1.365632 2.535425,1.365632 c 0.01437,0.0073 0.03232,0.01472 0.05028,0.01472 0.02155,0 0.04669,-0.0073 0.06465,-0.02209 0.03232,-0.02577 0.05028,-0.06626 0.04309,-0.110429 l -0.484825,-2.896836 2.054199,-2.050289 c 0.03232,-0.02945 0.04309,-0.07362 0.02873,-0.114109 z m -2.273264,2.046607 c -0.02514,0.02577 -0.03591,0.06258 -0.03232,0.09939 l 0.456089,2.727583 -2.391776,-1.288332 c -0.03232,-0.01841 -0.07182,-0.01841 -0.104146,0 l -2.391776,1.288332 0.45609,-2.727583 c 0.0072,-0.03681 -0.0072,-0.07362 -0.03232,-0.09939 l -1.9285,-1.932498 2.671893,-0.397542 c 0.03591,-0.0073 0.06823,-0.02945 0.0826,-0.06258 l 1.195889,-2.48464 1.195887,2.480959 c 0.01437,0.03313 0.04669,0.05521 0.0826,0.06258 l 2.671893,0.401223 z m -1.788445,1.402442 c -0.01437,0.02945 -0.0036,0.06258 0.02514,0.0773 l 1.842314,0.990174 c 0.0072,0.0037 0.01796,0.0073 0.02514,0.0073 0.02155,0 0.03951,-0.01104 0.05028,-0.02945 0.01437,-0.02577 0.0036,-0.06258 -0.02154,-0.0773 L 23.2431,34.194754 c -0.03232,-0.01472 -0.06465,-0.0037 -0.079,0.02209 z m -0.193927,-5.804857 c -0.02873,-0.01472 -0.06105,-0.0037 -0.07542,0.02577 l -0.879856,1.825751 c -0.01437,0.02945 -0.0036,0.06258 0.02514,0.07362 0.0072,0.0037 0.01795,0.0073 0.02514,0.0073 0.02155,0 0.03951,-0.01104 0.05028,-0.03313 l 0.879857,-1.82575 c 0.01437,-0.02577 0.0036,-0.05889 -0.02514,-0.07362 z m -3.365006,2.709178 c -0.02155,-0.02209 -0.05746,-0.02209 -0.079,0 -0.02154,0.02209 -0.02154,0.05889 0,0.08098 l 1.612474,1.608575 -0.240614,1.442932 c -0.0036,0.02945 0.01437,0.05889 0.04309,0.06626 0.0036,0 0.0072,0 0.01077,0 0.02514,0 0.05028,-0.01841 0.05387,-0.04785 l 0.2478,-1.47238 c 0.0036,-0.01841 -0.0036,-0.03681 -0.01437,-0.05153 z"
   inkscape:connector-curvature="0"
   style="stroke-width:0.36358252" /><path
   id="path4321-0-9-1"
   d="m 34.826112,25.095937 c -0.01437,-0.04049 -0.04669,-0.06994 -0.08978,-0.0773 l -2.837093,-0.423309 -1.267712,-2.63556 c -0.01437,-0.03681 -0.05387,-0.06258 -0.09696,-0.06258 -0.04309,0 -0.079,0.02577 -0.100555,0.06258 l -1.267713,2.63556 -2.837091,0.423309 c -0.04309,0.0073 -0.07542,0.03681 -0.08978,0.0773 -0.01437,0.04049 -0.0036,0.08466 0.02873,0.114109 l 2.050607,2.050289 -0.48482,2.896906 c -0.0072,0.04049 0.01077,0.08466 0.04309,0.110429 0.03591,0.02577 0.079,0.02945 0.11492,0.0073 l 2.542609,-1.365632 2.535425,1.365632 c 0.01437,0.0073 0.03232,0.01472 0.05028,0.01472 0.02155,0 0.04669,-0.0073 0.06465,-0.02209 0.03232,-0.02577 0.05028,-0.06626 0.04309,-0.110429 l -0.484825,-2.896836 2.054199,-2.050289 c 0.03232,-0.02945 0.04309,-0.07362 0.02873,-0.114109 z m -2.273264,2.046607 c -0.02514,0.02577 -0.03591,0.06258 -0.03232,0.09939 l 0.456089,2.727583 -2.391776,-1.288332 c -0.03232,-0.01841 -0.07182,-0.01841 -0.104146,0 l -2.391776,1.288332 0.45609,-2.727583 c 0.0072,-0.03681 -0.0072,-0.07362 -0.03232,-0.09939 l -1.9285,-1.932498 2.671893,-0.397542 c 0.03591,-0.0073 0.06823,-0.02945 0.0826,-0.06258 l 1.195889,-2.48464 1.195887,2.480959 c 0.01437,0.03313 0.04669,0.05521 0.0826,0.06258 l 2.671893,0.401223 z m -1.788445,1.402442 c -0.01437,0.02945 -0.0036,0.06258 0.02514,0.0773 l 1.842314,0.990174 c 0.0072,0.0037 0.01796,0.0073 0.02514,0.0073 0.02155,0 0.03951,-0.01104 0.05028,-0.02945 0.01437,-0.02577 0.0036,-0.06258 -0.02154,-0.0773 L 30.84341,28.522882 c -0.03232,-0.01472 -0.06465,-0.0037 -0.079,0.02209 z m -0.193927,-5.804857 c -0.02873,-0.01472 -0.06105,-0.0037 -0.07542,0.02577 L 29.6152,24.59165 c -0.01437,0.02945 -0.0036,0.06258 0.02514,0.07362 0.0072,0.0037 0.01795,0.0073 0.02514,0.0073 0.02155,0 0.03951,-0.01104 0.05028,-0.03313 l 0.879857,-1.82575 c 0.01437,-0.02577 0.0036,-0.05889 -0.02514,-0.07362 z m -3.365006,2.709178 c -0.02155,-0.02209 -0.05746,-0.02209 -0.079,0 -0.02154,0.02209 -0.02154,0.05889 0,0.08098 l 1.612474,1.608575 -0.240614,1.442932 c -0.0036,0.02945 0.01437,0.05889 0.04309,0.06626 0.0036,0 0.0072,0 0.01077,0 0.02514,0 0.05028,-0.01841 0.05387,-0.04785 l 0.2478,-1.47238 c 0.0036,-0.01841 -0.0036,-0.03681 -0.01437,-0.05153 z"
   inkscape:connector-curvature="0"
   style="stroke-width:0.36358252" /><text
   xml:space="preserve"
   style="font-style:normal;font-variant:normal;font-weight:normal;font-stretch:normal;font-size:40px;line-height:1.25;font-family:'Red Hat Text';-inkscape-font-specification:'Red Hat Text, Normal';font-variant-ligatures:normal;font-variant-caps:normal;font-variant-numeric:normal;font-feature-settings:normal;text-align:start;letter-spacing:0px;word-spacing:0px;writing-mode:lr-tb;text-anchor:start;fill:#000000;fill-opacity:1;stroke:none"
   x="36.593586"
   y="30.867985"
   id="text821"><tspan
     sodipodi:role="line"
     id="tspan819"
     x="36.593586"
     y="30.867985">Hiring App</tspan></text>
</svg>